<svg aria-hidden="true" style="position: absolute; width: 0; height: 0; overflow: hidden;" version="1.1" xmlns="http://www.w3.org/2000/svg" xmlns:xlink="http://www.w3.org/1999/xlink">
	<defs>
		<symbol id="icon-phone" viewBox="0 0 32 32">
			<path d="M31.038 24.788l-6-4.009c-0.999-0.668-1.961-0.645-2.793 0.039-2.336 1.915-3.721 1.366-3.947 1.253-1.321-0.661-2.569-1.285-4.494-3.209-2.389-2.391-3.252-3.917-3.875-5.16-0.249-0.497-0.535-2.169 1.1-3.913 0.765-0.814 0.835-1.814 0.199-2.814-0.49-0.771-0.49-0.771-0.875-1.337-0.38-0.56-1.139-1.679-3.142-4.676-0.433-0.647-1.047-0.962-1.879-0.962-0.943 0-1.42 0.478-1.805 0.862l-2 2c-1.416 1.415-1.529 2.227-1.529 3.138 0 1.147 1.657 8.626 9.528 16.47 7.846 7.873 15.317 9.53 16.464 9.53h0.044c0.903-0.013 1.706-0.133 3.101-1.529l2-2c0.385-0.384 0.863-0.862 0.863-1.805 0-0.832-0.315-1.447-0.962-1.879zM30.195 27.529l-2 2c-1.123 1.123-1.611 1.13-2.203 1.138-0.082-0.003-7.261-0.849-15.521-9.139-8.194-8.165-9.136-15.463-9.137-15.527 0-0.591 0-1.057 1.137-2.195l2-2c0.351-0.35 0.491-0.471 0.863-0.471 0.435 0 0.618 0.142 0.771 0.37 2.006 3.003 2.767 4.124 3.147 4.683 0.375 0.552 0.375 0.552 0.853 1.305 0.379 0.595 0.201 0.922-0.047 1.186-2.081 2.216-1.773 4.514-1.321 5.421 0.669 1.337 1.593 2.975 4.125 5.507 2.077 2.077 3.482 2.779 4.84 3.459 0.374 0.186 0.862 0.289 1.375 0.289 0.884 0 2.297-0.295 4.013-1.703 0.243-0.201 0.417-0.224 0.526-0.224 0.191 0 0.421 0.089 0.681 0.263l6 4.008c0.227 0.151 0.369 0.334 0.369 0.77 0 0.371-0.121 0.512-0.471 0.862z">
			</path>
		</symbol>
		<symbol id="icon-email" viewBox="0 0 32 32">
			<path d="M31.922 6.898c-0.133-0.672-0.433-1.307-0.87-1.841-0.089-0.112-0.182-0.212-0.283-0.313-0.778-0.782-1.861-1.231-2.971-1.231h-23.594c-1.122 0-2.177 0.438-2.971 1.232-0.101 0.1-0.194 0.201-0.286 0.317-0.436 0.532-0.734 1.166-0.864 1.839-0.054 0.264-0.082 0.538-0.082 0.815v16.571c0 0.576 0.117 1.138 0.349 1.672 0.201 0.474 0.506 0.923 0.882 1.299 0.095 0.094 0.189 0.181 0.289 0.266 0.752 0.623 1.704 0.966 2.682 0.966h23.594c0.984 0 1.935-0.344 2.685-0.973 0.1-0.081 0.193-0.166 0.286-0.259 0.364-0.363 0.653-0.781 0.86-1.241l0.027-0.066c0.228-0.524 0.344-1.083 0.344-1.664v-16.571c0-0.273-0.026-0.549-0.078-0.817zM2.176 6.194c0.059-0.087 0.135-0.176 0.232-0.274 0.481-0.48 1.118-0.745 1.794-0.745h23.594c0.682 0 1.32 0.265 1.795 0.746 0.082 0.083 0.16 0.175 0.229 0.267l0.18 0.242-12.594 10.976c-0.388 0.34-0.888 0.528-1.408 0.528-0.514 0-1.014-0.187-1.407-0.527l-12.581-10.973 0.165-0.24zM1.672 24.432c-0.007-0.045-0.008-0.095-0.008-0.146v-16.228l9.773 8.526-9.675 8.435-0.090-0.587zM29.056 26.49c-0.378 0.218-0.814 0.334-1.259 0.334h-23.594c-0.445 0-0.881-0.116-1.259-0.334l-0.396-0.229 9.996-8.711 1.095 0.953c0.657 0.57 1.495 0.885 2.36 0.885 0.868 0 1.707-0.314 2.364-0.885l1.095-0.953 9.993 8.712-0.396 0.229zM30.336 24.286c0 0.050-0.001 0.1-0.007 0.144l-0.087 0.592-9.679-8.434 9.773-8.526v16.224z">
			</path>
		</symbol>
		<symbol id="icon-folder" viewBox="0 0 32 32">
			<path stroke-linejoin="miter" stroke-linecap="round" stroke-miterlimit="4" stroke-width="2" d="M24 13.333h-6.667">
			</path>
			<path stroke-linejoin="miter" stroke-linecap="butt" stroke-miterlimit="4" stroke-width="2" d="M2.667 9.267c0-1.177 0-1.765 0.093-2.256 0.418-2.158 2.092-3.832 4.216-4.245l0.034-0.005c0.492-0.093 1.081-0.093 2.257-0.093 0.515 0 0.773 0 1.021 0.023 1.117 0.108 2.115 0.545 2.915 1.212l-0.009-0.007c0.192 0.159 0.373 0.34 0.739 0.705l0.733 0.733c1.088 1.088 1.632 1.632 2.283 1.993 0.324 0.184 0.699 0.344 1.093 0.46l0.038 0.009c0.717 0.204 1.487 0.204 3.024 0.204h0.499c3.509 0 5.265 0 6.405 1.027 0.105 0.093 0.205 0.193 0.299 0.299 1.027 1.14 1.027 2.896 1.027 6.405v2.936c0 5.028 0 7.543-1.563 9.104-1.561 1.563-4.076 1.563-9.104 1.563h-5.333c-5.028 0-7.543 0-9.104-1.563-1.563-1.561-1.563-4.076-1.563-9.104v-9.4z">
			</path>
		</symbol>
		<symbol id="icon-github" viewBox="0 0 32 32">
			<path d="M16 3c-7.18 0-13 5.82-13 13 0 6.139 4.256 11.28 9.977 12.643-0.296-0.070-0.589-0.149-0.877-0.239v-2.979c0 0-0.488 0.163-1.137 0.163-1.819 0-2.574-1.622-2.763-2.438-0.114-0.497-0.413-0.967-0.734-1.255-0.383-0.342-0.563-0.343-0.566-0.46-0.005-0.245 0.329-0.235 0.487-0.235 0.813 0 1.428 0.864 1.714 1.311 0.709 1.104 1.469 1.288 1.861 1.288 0.488 0 0.909-0.073 1.198-0.213 0.134-0.944 0.554-1.785 1.239-2.387-3.049-0.61-5.2-2.358-5.2-5.2 0-1.464 0.588-2.809 1.566-3.896-0.1-0.284-0.267-0.857-0.267-1.791 0-0.617 0.043-1.376 0.325-2.113 0 0 1.854 0.013 3.603 1.669 0.807-0.235 1.671-0.369 2.572-0.369s1.766 0.134 2.572 0.369c1.748-1.656 3.602-1.669 3.602-1.669 0.284 0.737 0.325 1.495 0.325 2.113 0 1.008-0.134 1.595-0.216 1.848 0.949 1.076 1.516 2.401 1.516 3.839 0 2.842-2.151 4.59-5.2 5.2 0.814 0.715 1.3 1.756 1.3 2.925v4.279c-0.288 0.090-0.581 0.169-0.878 0.239 5.721-1.363 9.977-6.505 9.977-12.643 0-7.18-5.82-13-13-13zM16.907 28.965c-0.299 0.021-0.602 0.035-0.907 0.035 0.305 0 0.607-0.015 0.907-0.035zM18.893 28.673c-0.582 0.133-1.178 0.226-1.788 0.277 0.609-0.052 1.206-0.145 1.788-0.277zM16 29c-0.305 0-0.607-0.014-0.906-0.035 0.3 0.020 0.601 0.035 0.906 0.035zM14.894 28.95c-0.608-0.052-1.206-0.145-1.787-0.277 0.582 0.132 1.178 0.226 1.787 0.277z">
			</path>
		</symbol>
		<symbol id="icon-external-link" viewBox="0 0 32 32">
			<path stroke-linejoin="round" stroke-linecap="round" stroke-miterlimit="4" stroke-width="2.6667" d="M13.333 5.333h-5.333c-1.473 0-2.667 1.194-2.667 2.667v0 16c0 1.473 1.194 2.667 2.667 2.667v0h16c1.473 0 2.667-1.194 2.667-2.667v0-5.333M14.667 17.333l12-12M26.667 5.333v6.667M26.667 5.333h-6.667">
			</path>
		</symbol>
	</defs>
</svg>
